<svg fill="none" height="118" viewBox="0 0 145 118" width="145" xmlns="http://www.w3.org/2000/svg"><g stroke-width="2"><g stroke="#babfd3"><rect fill="#fff" height="94" rx="13" width="114" x="1" y="1"/><path d="m0 18.8296h115.903"/><path d="m0 37.8545h115.903"/><path d="m0 56.8799h115.903"/><path d="m0 75.9033h115.903"/><path d="m66.3857 95.9277v-76.0988"/><path d="m90.6426 95.9277v-76.0988"/><path d="m42.126 95.9277v-76.0988"/></g><path d="m142.615 55.1803.59-.8073-.807-.5901-1.615-1.1801-.807-.5901-.59.8074-19.321 26.4354-16.936-15.4489-.895-.8168-.632 1.0343-20.078 32.8679-20.892-16.9004-.8518-.689-.6086.9109-21.8341 32.6755-.5556.832.8315.555 1.6629 1.111.8314.556.5556-.832 20.0081-29.9426 20.999 16.9866.8873.718.595-.974 19.9673-32.6867 16.72 15.252.824.7513.658-.9z" fill="#86a6dd" stroke="#fff"/></g></svg>